<svg xmlns="http://www.w3.org/2000/svg" id="Component_6_1" width="314.424" height="259.404" data-name="Component 6 – 1" viewBox="0 0 314.424 259.404">
    <defs>
        <style>
            .cls-1{fill:#f89600}.cls-2{fill:#1187f4}.cls-3{fill:#fff}.cls-4,.cls-7{opacity:.2}.cls-5{fill:#3a5c91}.cls-6{fill:#ffbb2c}
        </style>
    </defs>
    <g id="Group_304" data-name="Group 304" transform="translate(188.456)">
        <g id="Group_303" data-name="Group 303">
            <path id="Path_248" d="M448.613 387.669a1.469 1.469 0 0 1-1.467-1.473v-12.372a1.467 1.467 0 1 1 2.933 0V386.2a1.469 1.469 0 0 1-1.466 1.469z" class="cls-1" data-name="Path 248" transform="translate(-379.392 -192.073)"/>
            <path id="Path_249" d="M452.2 384.3h-11.73a1.473 1.473 0 0 1 0-2.946h11.73a1.473 1.473 0 0 1 0 2.946z" class="cls-1" data-name="Path 249" transform="translate(-376.822 -194.887)"/>
            <path id="Path_250" d="M357.756 124.794a1.469 1.469 0 0 1-1.467-1.473v-11.783a1.467 1.467 0 1 1 2.933 0v11.783a1.469 1.469 0 0 1-1.466 1.473z" class="cls-1" data-name="Path 250" transform="translate(-350.716 -110.066)"/>
            <path id="Path_251" d="M361.345 121.154h-11.732a1.473 1.473 0 0 1 0-2.946h11.732a1.473 1.473 0 0 1 0 2.946z" class="cls-1" data-name="Path 251" transform="translate(-348.146 -112.612)"/>
        </g>
    </g>
    <g id="Group_314" data-name="Group 314" transform="translate(0 21.311)">
        <g id="chat" transform="translate(64.56 8.618)">
            <g id="Group_305" data-name="Group 305" transform="translate(0 74.921)">
                <path id="Path_252" d="M320.017 308.912l-.048 16.317-.261 90.811-32.056-32.195h-96.163a21.416 21.416 0 0 1-21.373-21.459v-75.118a21.416 21.416 0 0 1 21.373-21.459l25.329-.069 40.57-.11 8.562-.021z" class="cls-2" data-name="Path 252" transform="translate(-168.062 -263.549)"/>
                <path id="Path_253" d="M318.762 417.165a2.048 2.048 0 0 1-1.452-.6l-31.455-31.595h-95.313a23.5 23.5 0 0 1-23.427-23.521V286.33a23.5 23.5 0 0 1 23.427-23.52l74.457-.2a2.046 2.046 0 0 1 1.28.449l54.067 43.3a2.065 2.065 0 0 1 .773 1.618l-.309 107.128a2.055 2.055 0 0 1-2.052 2.056zm-54.475-150.428l-73.739.2a19.382 19.382 0 0 0-19.326 19.4v75.119a19.381 19.381 0 0 0 19.32 19.4h96.164a2.051 2.051 0 0 1 1.452.6l28.566 28.689.29-101.173z" class="cls-2" data-name="Path 253" transform="translate(-167.115 -262.611)"/>
            </g>
            <g id="Group_306" data-name="Group 306" transform="translate(33.991 111.666)">
                <path id="Path_254" d="M277.692 322.944H220.2a3.437 3.437 0 0 1 0-6.873h57.489a3.437 3.437 0 0 1 0 6.873z" class="cls-3" data-name="Path 254" transform="translate(-216.782 -316.071)"/>
                <path id="Path_255" d="M277.692 353.944H220.2a3.437 3.437 0 0 1 0-6.873h57.489a3.437 3.437 0 0 1 0 6.873z" class="cls-3" data-name="Path 255" transform="translate(-216.782 -325.764)"/>
                <path id="Path_256" d="M277.692 384.944H220.2a3.437 3.437 0 0 1 0-6.873h57.489a3.437 3.437 0 0 1 0 6.873z" class="cls-3" data-name="Path 256" transform="translate(-216.782 -335.456)"/>
            </g>
            <path id="Path_257" d="M360.264 308.912l-.048 16.317h-27.622l-31.454 31.584a2.041 2.041 0 0 1-1.458.6 2.036 2.036 0 0 1-2.046-2.062v-89.72l8.562-.021z" class="cls-4" data-name="Path 257" transform="translate(-208.309 -188.627)"/>
            <g id="Group_307" data-name="Group 307" transform="translate(96.167)">
                <path id="Path_258" d="M438.851 274.651h-96.165l-32.055 32.193V178.071A21.415 21.415 0 0 1 332 156.609h106.85a21.415 21.415 0 0 1 21.37 21.462v75.117a21.416 21.416 0 0 1-21.369 21.463z" class="cls-3" data-name="Path 258" transform="translate(-308.578 -154.547)"/>
                <path id="Path_259" d="M309.684 307.968a2.023 2.023 0 0 1-.785-.157 2.061 2.061 0 0 1-1.267-1.9V177.133a23.5 23.5 0 0 1 23.423-23.524H437.9a23.5 23.5 0 0 1 23.423 23.524v75.117a23.5 23.5 0 0 1-23.423 23.525h-95.31l-31.454 31.589a2.048 2.048 0 0 1-1.452.604zm21.371-150.235a19.38 19.38 0 0 0-19.317 19.4v123.8l28.55-28.673a2.046 2.046 0 0 1 1.452-.6h96.16a19.381 19.381 0 0 0 19.317-19.4v-75.127a19.38 19.38 0 0 0-19.317-19.4z" class="cls-5" data-name="Path 259" transform="translate(-307.631 -153.609)"/>
            </g>
            <ellipse id="Ellipse_2" cx="10.608" cy="10.654" class="cls-4" data-name="Ellipse 2" rx="10.608" ry="10.654" transform="translate(201.991 53.311)"/>
            <ellipse id="Ellipse_3" cx="10.608" cy="10.654" class="cls-4" data-name="Ellipse 3" rx="10.608" ry="10.654" transform="translate(162.981 53.311)"/>
            <ellipse id="Ellipse_4" cx="10.608" cy="10.654" class="cls-4" data-name="Ellipse 4" rx="10.608" ry="10.654" transform="translate(123.971 53.311)"/>
            <g id="Group_308" data-name="Group 308" transform="translate(124.193 51.937)">
                <ellipse id="Ellipse_5" cx="8.555" cy="8.592" class="cls-2" data-name="Ellipse 5" rx="8.555" ry="8.592" transform="translate(2.053 2.062)"/>
                <path id="Path_260" d="M359.189 250.478a10.654 10.654 0 1 1 10.611-10.653 10.643 10.643 0 0 1-10.611 10.653zm0-17.183a6.53 6.53 0 1 0 6.5 6.53 6.523 6.523 0 0 0-6.5-6.525z" class="cls-5" data-name="Path 260" transform="translate(-348.581 -229.171)"/>
            </g>
            <g id="Group_309" data-name="Group 309" transform="translate(163.092 51.937)">
                <ellipse id="Ellipse_6" cx="8.555" cy="8.592" class="cls-2" data-name="Ellipse 6" rx="8.555" ry="8.592" transform="translate(2.053 2.062)"/>
                <path id="Path_261" d="M416.026 250.478a10.654 10.654 0 1 1 10.608-10.654 10.643 10.643 0 0 1-10.608 10.654zm0-17.183a6.53 6.53 0 1 0 6.5 6.53 6.523 6.523 0 0 0-6.5-6.525z" class="cls-5" data-name="Path 261" transform="translate(-405.418 -229.171)"/>
            </g>
            <g id="Group_310" data-name="Group 310" transform="translate(201.991 51.937)">
                <ellipse id="Ellipse_7" cx="8.555" cy="8.592" class="cls-2" data-name="Ellipse 7" rx="8.555" ry="8.592" transform="translate(2.053 2.062)"/>
                <path id="Path_262" d="M472.864 250.478a10.654 10.654 0 1 1 10.608-10.654 10.643 10.643 0 0 1-10.608 10.654zm0-17.183a6.53 6.53 0 1 0 6.5 6.53 6.523 6.523 0 0 0-6.5-6.525z" class="cls-5" data-name="Path 262" transform="translate(-462.256 -229.171)"/>
            </g>
        </g>
        <path id="Path_263" d="M216.819 265.8a38.1 38.1 0 0 1-46.7 35.721v-14.194a21.416 21.416 0 0 1 21.373-21.459z" class="cls-4" data-name="Path 263" transform="translate(-103.502 -180.069)"/>
        <g id="Group_311" data-name="Group 311" transform="translate(37.155 40.418)">
            <ellipse id="Ellipse_8" cx="36.044" cy="36.2" class="cls-6" data-name="Ellipse 8" rx="36.044" ry="36.2" transform="translate(2.053 2.062)"/>
            <path id="Path_264" d="M165.17 276.4a38.262 38.262 0 1 1 38.1-38.262 38.223 38.223 0 0 1-38.1 38.262zm0-72.4a34.138 34.138 0 1 0 33.991 34.137A34.1 34.1 0 0 0 165.17 204z" class="cls-6" data-name="Path 264" transform="translate(-127.072 -199.874)"/>
        </g>
        <g id="Group_312" class="cls-7" data-name="Group 312" transform="translate(70.817 56.169)">
            <path id="Path_265" d="M180.534 284.95a4.3 4.3 0 1 1 3.021-1.262 4.126 4.126 0 0 1-3.021 1.262z" data-name="Path 265" transform="translate(-176.257 -239.539)"/>
            <path id="Path_266" d="M180.534 256.324a4.3 4.3 0 0 1-4.277-4.3v-24.938a4.277 4.277 0 1 1 8.555 0v24.942a4.3 4.3 0 0 1-4.277 4.3z" data-name="Path 266" transform="translate(-176.257 -222.79)"/>
        </g>
        <g id="Group_313" data-name="Group 313" transform="translate(70.133 54.107)">
            <path id="Path_267" d="M179.534 281.95a4.3 4.3 0 1 1 3.021-1.262 4.126 4.126 0 0 1-3.021 1.262z" class="cls-3" data-name="Path 267" transform="translate(-175.257 -236.539)"/>
            <path id="Path_268" d="M179.534 253.324a4.3 4.3 0 0 1-4.277-4.3v-24.938a4.277 4.277 0 1 1 8.555 0v24.942a4.3 4.3 0 0 1-4.277 4.3z" class="cls-3" data-name="Path 268" transform="translate(-175.257 -219.79)"/>
        </g>
        <path id="Path_269" d="M180.835 173.376a2.057 2.057 0 0 1-2.053-2.062v-28.181a2.053 2.053 0 1 1 4.106 0v28.181a2.058 2.058 0 0 1-2.053 2.062z" class="cls-5" data-name="Path 269" transform="translate(-106.237 -141.071)"/>
        <path id="Path_270" d="M124.476 198.989a2.044 2.044 0 0 1-1.349-.508l-18.036-15.794a2.069 2.069 0 0 1-.2-2.91 2.048 2.048 0 0 1 2.9-.2l18.036 15.794a2.069 2.069 0 0 1 .2 2.91 2.046 2.046 0 0 1-1.551.708z" class="cls-5" data-name="Path 270" transform="translate(-82.757 -152.952)"/>
        <path id="Path_271" d="M101.526 256.2H74.835a2.062 2.062 0 0 1 0-4.124h26.691a2.062 2.062 0 0 1 0 4.124z" class="cls-5" data-name="Path 271" transform="translate(-72.782 -175.777)"/>
    </g>
</svg>
