<svg xmlns="http://www.w3.org/2000/svg" id="Component_10_1" width="257.876" height="346.682" data-name="Component 10 – 1" viewBox="0 0 257.876 346.682">
    <defs>
        <style>
            .cls-1{fill:#d6d5d5}.cls-2{fill:#f89600}.cls-3{fill:#1187f4}.cls-4{fill:#ffd45f}.cls-5{fill:#fcd682}.cls-6{fill:#df8c05}.cls-7{fill:#2a2f39}.cls-8{fill:#e0e1e3}.cls-9{fill:#fe9808}.cls-10{fill:#fff}
        </style>
    </defs>
    <ellipse id="Ellipse_103" cx="113.927" cy="7.562" class="cls-1" data-name="Ellipse 103" rx="113.927" ry="7.562" transform="translate(4.74 331.557)"/>
    <g id="Group_669" data-name="Group 669">
        <g id="Group_668" data-name="Group 668">
            <g id="Group_665" data-name="Group 665" transform="translate(40.018)">
                <path id="Path_813" d="M85.176 61.747c0 5.511-3.692 9.976-8.245 9.976 4.553 0 8.245 4.468 8.245 9.979 0-5.511 3.692-9.979 8.248-9.979-4.556 0-8.248-4.465-8.248-9.976z" class="cls-2" data-name="Path 813" transform="translate(-76.931 -47.088)"/>
                <path id="Path_814" d="M91.59 59.69c0 5.511-3.692 9.979-8.248 9.979 4.556 0 8.248 4.468 8.248 9.976 0-5.508 3.692-9.976 8.248-9.976-4.556 0-8.248-4.469-8.248-9.979z" class="cls-2" data-name="Path 814" transform="translate(-60.341 -52.407)"/>
                <path id="Path_815" d="M85.435 66.612c0 2.61-1.751 4.726-3.907 4.726 2.156 0 3.907 2.116 3.907 4.726 0-2.61 1.747-4.726 3.9-4.726-2.153 0-3.9-2.116-3.9-4.726z" class="cls-2" data-name="Path 815" transform="translate(-65.035 -34.508)"/>
                <path id="Path_816" d="M85.067 57.659c0 3.335-2.235 6.038-4.991 6.038 2.755 0 4.991 2.7 4.991 6.042 0-3.338 2.235-6.042 4.991-6.042-2.758.003-4.991-2.703-4.991-6.038z" class="cls-2" data-name="Path 816" transform="translate(-68.792 -57.659)"/>
            </g>
            <g id="Group_666" data-name="Group 666" transform="translate(229.102 175.281)">
                <path id="Path_817" d="M135.639 109.519c0 4.016-2.691 7.268-6.006 7.268 3.315 0 6.006 3.256 6.006 7.268 0-4.013 2.691-7.268 6.009-7.268-3.318 0-6.009-3.252-6.009-7.268z" class="cls-2" data-name="Path 817" transform="translate(-129.633 -98.84)"/>
                <path id="Path_818" d="M140.31 108.021c0 4.016-2.691 7.268-6.006 7.268 3.315 0 6.006 3.256 6.006 7.268 0-4.013 2.691-7.268 6.01-7.268-3.32 0-6.01-3.252-6.01-7.268z" class="cls-2" data-name="Path 818" transform="translate(-117.545 -102.714)"/>
                <path id="Path_819" d="M135.827 113.063a3.185 3.185 0 0 1-2.845 3.442c1.571 0 2.845 1.542 2.845 3.446 0-1.9 1.274-3.446 2.845-3.446a3.185 3.185 0 0 1-2.845-3.442z" class="cls-2" data-name="Path 819" transform="translate(-120.966 -89.676)"/>
                <path id="Path_820" d="M135.562 106.541c0 2.431-1.629 4.4-3.638 4.4 2.009 0 3.638 1.972 3.638 4.4 0-2.428 1.625-4.4 3.634-4.4-2.009 0-3.634-1.969-3.634-4.4z" class="cls-2" data-name="Path 820" transform="translate(-123.704 -106.541)"/>
            </g>
            <g id="Group_667" data-name="Group 667" transform="translate(0 163.025)">
                <path id="Path_821" d="M70.531 105.479c0 3.177-2.128 5.752-4.754 5.752 2.626 0 4.754 2.575 4.754 5.752 0-3.177 2.128-5.752 4.754-5.752-2.627 0-4.754-2.575-4.754-5.752z" class="cls-2" data-name="Path 821" transform="translate(-65.777 -97.031)"/>
                <path id="Path_822" d="M74.227 104.294c0 3.177-2.128 5.752-4.754 5.752 2.626 0 4.754 2.575 4.754 5.752 0-3.177 2.128-5.752 4.754-5.752-2.627 0-4.754-2.575-4.754-5.752z" class="cls-2" data-name="Path 822" transform="translate(-56.213 -100.095)"/>
                <path id="Path_823" d="M70.68 108.283a2.522 2.522 0 0 1-2.253 2.725 2.522 2.522 0 0 1 2.253 2.725 2.522 2.522 0 0 1 2.25-2.725 2.522 2.522 0 0 1-2.25-2.725z" class="cls-2" data-name="Path 823" transform="translate(-58.919 -89.78)"/>
                <path id="Path_824" d="M70.467 103.123c0 1.922-1.288 3.482-2.877 3.482 1.589 0 2.877 1.56 2.877 3.482 0-1.922 1.288-3.482 2.877-3.482-1.589-.005-2.877-1.56-2.877-3.482z" class="cls-2" data-name="Path 824" transform="translate(-61.085 -103.123)"/>
            </g>
        </g>
    </g>
    <g id="Group_718" data-name="Group 718" transform="translate(20.892 18.758)">
        <g id="Group_685" data-name="Group 685" transform="translate(125.888 101.119)">
            <g id="Group_677" data-name="Group 677" transform="translate(3.212)">
                <g id="Group_670" data-name="Group 670" transform="translate(38.291 68.79)">
                    <path id="Rectangle_327" d="M0 0h1.285v69.449H0z" class="cls-3" data-name="Rectangle 327"/>
                </g>
                <g id="Group_673" data-name="Group 673">
                    <path id="Path_882" d="M30.4.029A30.362 30.362 0 1 1 .029 30.385 30.382 30.382 0 0 1 30.4.029z" class="cls-4" data-name="Path 882" transform="rotate(-22.378 58.322 11.536)"/>
                    <path id="Path_825" d="M158.365 103.838a23.077 23.077 0 0 1-46.153 0c0-.445.011-.889.039-1.334a23.076 23.076 0 0 0 46.074 0c.03.445.04.889.04 1.334z" class="cls-5" data-name="Path 825" transform="translate(-95.605 -61.576)"/>
                    <ellipse id="Ellipse_105" cx="23.036" cy="21.73" class="cls-2" data-name="Ellipse 105" rx="23.036" ry="21.73" transform="translate(16.647 19.199)"/>
                    <path id="Path_826" d="M158.365 118.765c0 .563-.022 1.115-.072 1.657a23.066 23.066 0 0 0-46.013 0 19.161 19.161 0 0 1-.068-1.657 23.077 23.077 0 0 1 46.153 0z" class="cls-6" data-name="Path 826" transform="translate(-95.605 -79.167)"/>
                    <g id="Group_672" data-name="Group 672" transform="translate(34.482 28.191)">
                        <g id="Group_671" data-name="Group 671">
                            <path id="Path_827" d="M121.449 121.772v-2.808a8.106 8.106 0 0 1-4.255-1.223l.667-1.861a7.425 7.425 0 0 0 4 1.194c1.977 0 3.312-1.14 3.312-2.725 0-1.528-1.084-2.474-3.143-3.306-2.838-1.112-4.589-2.392-4.589-4.809 0-2.309 1.64-4.059 4.2-4.475v-2.807h1.722v2.7a7.4 7.4 0 0 1 3.616.972l-.7 1.836a6.719 6.719 0 0 0-3.505-.947c-2.142 0-2.946 1.28-2.946 2.392 0 1.445 1.026 2.166 3.448 3.166 2.863 1.169 4.309 2.614 4.309 5.088a4.837 4.837 0 0 1-4.391 4.726v2.89z" class="cls-4" data-name="Path 827" transform="translate(-117.194 -98.952)"/>
                        </g>
                    </g>
                </g>
                <g id="Group_676" data-name="Group 676" transform="translate(7.446 74.19)">
                    <path id="Path_828" d="M141.125 133.52s-8.151-25.011-29.606-17.348c-10.893 3.887 29.606 17.348 29.606 17.348z" class="cls-3" data-name="Path 828" transform="translate(-109.658 -104.196)"/>
                    <path id="Path_829" d="M118.429 141.1s11.287-29.325 28.684-29.325c17.932.005-28.684 29.325-28.684 29.325z" class="cls-3" data-name="Path 829" transform="translate(-86.962 -111.78)"/>
                    <g id="Group_674" data-name="Group 674" transform="translate(33.54 2.822)">
                        <path id="Path_830" d="M119.007 134.827a69.809 69.809 0 0 0 11.7-12.274 61.983 61.983 0 0 0 2.44-3.424c.75-1.122 1.464-2.51 2.888-3.173a16.085 16.085 0 0 1 4.3-1.1 7.409 7.409 0 0 0 3.982-1.563 7.463 7.463 0 0 1-3.925 1.822 16.052 16.052 0 0 0-4.173 1.155c-1.292.631-1.909 1.9-2.662 3.091s-1.539 2.363-2.379 3.5a63.768 63.768 0 0 1-5.629 6.4 52.014 52.014 0 0 1-6.542 5.566z" class="cls-3" data-name="Path 830" transform="translate(-119.007 -110.687)"/>
                        <path id="Path_831" d="M129.97 120.47a70.371 70.371 0 0 1-3.5-.47 17.327 17.327 0 0 1-1.758-.334c-.549-.14-1.356-.559-1.327-1.355a5.434 5.434 0 0 1 .682-1.621c.269-.495.535-.99.854-1.459a18.476 18.476 0 0 1 2.106-2.664q-.915 1.415-1.715 2.869a14.954 14.954 0 0 0-1.345 2.9c-.05.4.391.7.911.864s1.123.24 1.683.394c1.145.259 2.279.553 3.409.876z" class="cls-3" data-name="Path 831" transform="translate(-107.676 -112.567)"/>
                        <path id="Path_832" d="M126.468 118.161q-.91.672-1.873 1.266a8.923 8.923 0 0 1-1.012.574 1.2 1.2 0 0 1-1.392-.129 7.134 7.134 0 0 1-.7-2.166 9.747 9.747 0 0 1-.161-2.166c.187.7.387 1.391.6 2.073a10.475 10.475 0 0 0 .71 1.911c.265.369 1.091-.151 1.733-.455.678-.33 1.381-.632 2.095-.908z" class="cls-3" data-name="Path 832" transform="translate(-113.01 -104.879)"/>
                    </g>
                    <g id="Group_675" data-name="Group 675" transform="translate(5.609 10.517)">
                        <path id="Path_833" d="M135.709 129.809c-4.6-1.126-8.69-3.83-12.579-6.544a91.9 91.9 0 0 0-11.908-7.806c4.434 1.7 8.324 4.608 12.216 7.319 3.862 2.775 7.818 5.446 12.271 7.031z" class="cls-3" data-name="Path 833" transform="translate(-111.222 -112.784)"/>
                        <path id="Path_834" d="M115.868 114.713q.737 1.635 1.385 3.306c.226.552.42 1.119.628 1.678a5.441 5.441 0 0 1 .488 1.836 1.406 1.406 0 0 1-1.46 1.273 15.655 15.655 0 0 1-1.733-.186 57.442 57.442 0 0 1-3.372-.57c1.141.007 2.282.047 3.416.122.553.007 1.173.115 1.661.1.513-.032.944-.319.94-.778a5.352 5.352 0 0 0-.409-1.617c-.187-.567-.391-1.13-.556-1.707q-.54-1.707-.988-3.457z" class="cls-3" data-name="Path 834" transform="translate(-109.718 -114.713)"/>
                        <path id="Path_835" d="M116.759 116.712c.366.739.707 1.488 1.012 2.252.169.377.3.767.445 1.151a3.793 3.793 0 0 1 .352 1.3 1.058 1.058 0 0 1-1.091.954 8.979 8.979 0 0 1-1.2-.143q-1.162-.177-2.314-.463a27.237 27.237 0 0 1 2.357.014c.373 0 .822.072 1.134.057.337-.029.57-.2.563-.459a17.363 17.363 0 0 0-.639-2.259q-.357-1.181-.619-2.404z" class="cls-3" data-name="Path 835" transform="translate(-104.134 -109.544)"/>
                    </g>
                </g>
            </g>
            <g id="Group_684" data-name="Group 684" transform="translate(0 123.862)">
                <path id="Path_836" d="M161.334 147.314c.208-.287 11.384-18.976 11.384-18.976.434-1.51-1.195-2.854-3.053-2.56-4.025.645-10.48 1.857-12.97 1.477-.753-.115-.872-.405-2.117-.714a6.959 6.959 0 0 0-3.516-.3 6.355 6.355 0 0 0-2.616 1.653c-2.35 2.155-4.155 2.485-5.317 2.431-3.7-.172-10.71-4.489-14.459-4.683a2.881 2.881 0 0 0-1.46.265 2.715 2.715 0 0 0-1.083 3.1l9.167 18.187a3.413 3.413 0 0 0 .14.362c-12.191 11.683-28.745 34.076-28.745 47.247 0 11.973 7.341 26.176 41.482 26.176s41.482-14.39 41.482-26.176c-.001-12.653-16.304-35.781-28.319-47.489z" class="cls-3" data-name="Path 836" transform="translate(-106.688 -125.633)"/>
                <g id="Group_678" data-name="Group 678" transform="translate(20.698 .023)">
                    <path id="Path_837" d="M113.175 125.639a2.529 2.529 0 0 0-.718.176 6.3 6.3 0 0 0 .718-.176z" class="cls-7" data-name="Path 837" transform="translate(-112.457 -125.639)"/>
                    <path id="Path_838" d="M129.848 147.239c.208-.287 11.384-18.976 11.384-18.976.434-1.51-1.195-2.854-3.053-2.56-3.853.617-10.275 1.736-12.651 1.5-2.239 5.9-6.5 17.14-6.673 17.373 13.243 12.905 31.217 38.4 31.217 52.349 0 7.25-2.529 15.4-11.305 21.178 15.46-4.758 19.4-14.763 19.4-23.379-.001-12.649-16.304-35.778-28.319-47.485z" class="cls-8" data-name="Path 838" transform="translate(-95.9 -125.58)"/>
                </g>
                <g id="Group_683" data-name="Group 683" transform="translate(24.548 20.197)">
                    <g id="Group_682" data-name="Group 682">
                        <g id="Group_681" data-name="Group 681">
                            <g id="Group_679" data-name="Group 679" transform="translate(3.398)">
                                <path id="Path_839" d="M141.712 133.273c-.179-.172-.359-.351-.535-.524a11.543 11.543 0 0 0 .9-1.485l-27.6.05.66 1.312a3.417 3.417 0 0 0 .14.362l-.294.283z" class="cls-4" data-name="Path 839" transform="translate(-114.477 -131.265)"/>
                            </g>
                            <g id="Group_680" data-name="Group 680" transform="translate(0 3.84)">
                                <path id="Path_840" d="M147.966 134.344c-.66-.681-1.313-1.355-1.959-2.008h-30.46c-.664.656-1.338 1.327-2.016 2.008z" class="cls-4" data-name="Path 840" transform="translate(-113.53 -132.336)"/>
                            </g>
                        </g>
                    </g>
                    <path id="Path_841" d="M114.8 131.665c.032.1.068.194.108.29l-.294.283h26.729c-.179-.172-.359-.351-.535-.524l.025-.05z" class="cls-9" data-name="Path 841" transform="translate(-110.715 -130.231)"/>
                    <path id="Path_842" d="M147.406 132.737H114.1l-.574.57h34.436z" class="cls-9" data-name="Path 842" transform="translate(-113.53 -127.459)"/>
                </g>
                <path id="Path_843" d="M128.117 154.455a.112.112 0 0 1-.05-.05 30.1 30.1 0 0 1-1.188-.778c-3.078-2.03-4.607-3.711-4.607-5.063a2.534 2.534 0 0 1 .811-1.954 3.063 3.063 0 0 1 2.153-.739 3.29 3.29 0 0 1 2.716 1.061 5.282 5.282 0 0 1 .865 3.356v.592h6.365v-.645q0-4.878-2.372-7.293a7.936 7.936 0 0 0-4.144-2.141v-4.17h-6.243v4.17a9.1 9.1 0 0 0-4.2 1.89 7.836 7.836 0 0 0-2.569 6.329 9.057 9.057 0 0 0 1.518 5.3c1.008 1.474 3.412 3.45 7.176 5.924.2.136.459.3.782.52 2.433 1.56 3.638 2.951 3.638 4.167a2.921 2.921 0 0 1-.872 2.227 3.312 3.312 0 0 1-2.361.818 3.133 3.133 0 0 1-2.759-1.14 7.8 7.8 0 0 1-.8-4.16v-.538h-6.487c0 .143-.011.341-.032.613s-.022.466-.022.592c0 3.428.811 5.956 2.433 7.566a8.44 8.44 0 0 0 4.524 2.155v4.1h6.239v-4.12a9.352 9.352 0 0 0 4.381-1.972 7.962 7.962 0 0 0 2.651-6.411q-.004-5.188-7.546-10.206z" class="cls-10" data-name="Path 843" transform="translate(-84.063 -97.195)"/>
            </g>
        </g>
        <g id="Group_701" data-name="Group 701" transform="translate(31.207)">
            <g id="Group_693" data-name="Group 693" transform="translate(14.369)">
                <g id="Group_686" data-name="Group 686" transform="translate(49.382 91.47)">
                    <path id="Rectangle_328" d="M0 0h1.974v106.678H0z" class="cls-3" data-name="Rectangle 328"/>
                </g>
                <g id="Group_689" data-name="Group 689" transform="translate(4.862)">
                    <ellipse id="Ellipse_106" cx="46.66" cy="46.634" class="cls-4" data-name="Ellipse 106" rx="46.66" ry="46.634"/>
                    <path id="Path_844" d="M159.675 78.513a35.446 35.446 0 0 1-70.891 0c0-.685.014-1.366.057-2.048a35.447 35.447 0 0 0 70.773 0c.047.681.061 1.363.061 2.048z" class="cls-5" data-name="Path 844" transform="translate(-77.569 -27.789)"/>
                    <ellipse id="Ellipse_107" cx="35.385" cy="33.379" class="cls-2" data-name="Ellipse 107" rx="35.385" ry="33.379" transform="translate(11.274 15.296)"/>
                    <path id="Path_845" d="M159.675 101.442c0 .864-.032 1.714-.108 2.546a35.431 35.431 0 0 0-70.679 0c-.075-.832-.1-1.682-.1-2.546a35.446 35.446 0 0 1 70.891 0z" class="cls-6" data-name="Path 845" transform="translate(-77.569 -54.813)"/>
                    <g id="Group_688" data-name="Group 688" transform="translate(38.672 29.108)">
                        <g id="Group_687" data-name="Group 687">
                            <path id="Path_846" d="M102.97 106.059v-4.31a12.458 12.458 0 0 1-6.533-1.879l1.023-2.861a11.392 11.392 0 0 0 6.153 1.836c3.032 0 5.084-1.75 5.084-4.185 0-2.349-1.668-3.8-4.829-5.081-4.356-1.707-7.046-3.672-7.046-7.387 0-3.543 2.519-6.232 6.451-6.874v-4.31h2.648v4.138a11.439 11.439 0 0 1 5.554 1.5L110.4 79.46a10.321 10.321 0 0 0-5.382-1.452c-3.29 0-4.528 1.965-4.528 3.672 0 2.22 1.579 3.331 5.3 4.87 4.4 1.793 6.623 4.013 6.623 7.81 0 3.378-2.35 6.533-6.752 7.261v4.439z" class="cls-4" data-name="Path 846" transform="translate(-96.437 -71.008)"/>
                        </g>
                    </g>
                </g>
                <g id="Group_692" data-name="Group 692" transform="translate(0 99.767)">
                    <path id="Path_847" d="M98.342 124.107s12.521-38.415 45.475-26.65c16.734 5.974-45.475 26.65-45.475 26.65z" class="cls-3" data-name="Path 847" transform="translate(-47.973 -79.066)"/>
                    <path id="Path_848" d="M134.672 135.754S117.336 90.713 90.61 90.713c-27.547 0 44.062 45.041 44.062 45.041z" class="cls-3" data-name="Path 848" transform="translate(-84.303 -90.713)"/>
                    <g id="Group_690" data-name="Group 690" transform="translate(8.302 4.335)">
                        <path id="Path_849" d="M125.5 126.114a107.039 107.039 0 0 1-17.968-18.858q-1.975-2.566-3.749-5.257c-1.152-1.728-2.25-3.858-4.438-4.877a24.8 24.8 0 0 0-6.605-1.689c-2.2-.359-4.488-.868-6.121-2.4 1.521 1.628 3.85 2.306 6.031 2.793a24.67 24.67 0 0 1 6.408 1.775c1.984.972 2.931 2.919 4.09 4.751s2.361 3.625 3.656 5.372a97.064 97.064 0 0 0 8.647 9.832 79.977 79.977 0 0 0 10.049 8.558z" class="cls-3" data-name="Path 849" transform="translate(-86.617 -89.034)"/>
                        <path id="Path_850" d="M87.909 104.056c1.8-.194 3.6-.43 5.375-.721a26.5 26.5 0 0 0 2.7-.509c.843-.215 2.085-.864 2.038-2.08a8.286 8.286 0 0 0-1.044-2.5 25.5 25.5 0 0 0-1.313-2.238 28.337 28.337 0 0 0-3.233-4.091q1.4 2.173 2.633 4.4a23.241 23.241 0 0 1 2.07 4.454c.072.613-.606 1.083-1.4 1.33s-1.726.369-2.587.6c-1.759.409-3.506.864-5.239 1.355z" class="cls-3" data-name="Path 850" transform="translate(-83.274 -91.922)"/>
                        <path id="Path_851" d="M91.692 100.511a40.38 40.38 0 0 0 2.881 1.947 13.411 13.411 0 0 0 1.55.882 1.842 1.842 0 0 0 2.138-.2 11.038 11.038 0 0 0 1.08-3.324 14.8 14.8 0 0 0 .244-3.328c-.287 1.079-.6 2.137-.911 3.184a16.274 16.274 0 0 1-1.094 2.937c-.409.563-1.679-.233-2.662-.7a43.336 43.336 0 0 0-3.226-1.398z" class="cls-3" data-name="Path 851" transform="translate(-73.484 -80.115)"/>
                    </g>
                    <g id="Group_691" data-name="Group 691" transform="translate(52.479 16.15)">
                        <path id="Path_852" d="M98.93 118.406c7.068-1.732 13.347-5.881 19.317-10.055 5.956-4.271 11.786-8.7 18.291-11.987-6.806 2.607-12.787 7.075-18.761 11.242-5.931 4.259-12.009 8.362-18.847 10.8z" class="cls-3" data-name="Path 852" transform="translate(-98.93 -92.251)"/>
                        <path id="Path_853" d="M109.551 95.217a105.869 105.869 0 0 0-2.124 5.077c-.348.85-.642 1.718-.965 2.578a8.552 8.552 0 0 0-.753 2.826 2.166 2.166 0 0 0 2.25 1.951 22.331 22.331 0 0 0 2.662-.287 89.486 89.486 0 0 0 5.174-.871c-1.751.011-3.5.068-5.242.183-.847.014-1.8.179-2.551.158-.789-.043-1.449-.484-1.446-1.19a8.165 8.165 0 0 1 .631-2.485c.283-.871.6-1.736.85-2.621a99.251 99.251 0 0 0 1.514-5.319z" class="cls-3" data-name="Path 853" transform="translate(-81.39 -95.217)"/>
                        <path id="Path_854" d="M106.01 98.288a48.406 48.406 0 0 0-1.557 3.46c-.255.577-.456 1.18-.682 1.768a5.876 5.876 0 0 0-.538 2 1.617 1.617 0 0 0 1.672 1.463 13.9 13.9 0 0 0 1.851-.215 42.668 42.668 0 0 0 3.556-.71 42.089 42.089 0 0 0-3.624.022c-.574-.007-1.263.108-1.74.086-.52-.043-.879-.3-.868-.7a26.3 26.3 0 0 1 .983-3.467c.366-1.222.678-2.456.947-3.707z" class="cls-3" data-name="Path 854" transform="translate(-87.795 -87.276)"/>
                    </g>
                </g>
            </g>
            <g id="Group_700" data-name="Group 700" transform="translate(0 176.064)">
                <path id="Path_855" d="M164.242 145.3c.316-.441 17.483-29.149 17.483-29.149.667-2.32-1.833-4.389-4.689-3.93-6.185.986-16.1 2.847-19.927 2.263-1.155-.176-1.338-.617-3.251-1.094-2.067-.513-3.706-.918-5.4-.466a9.785 9.785 0 0 0-4.018 2.535c-3.609 3.31-6.379 3.819-8.166 3.736-5.679-.262-16.45-6.9-22.208-7.193a4.385 4.385 0 0 0-2.246.409c-1.873.968-2.041 3.392-1.661 4.762l14.082 27.937a4.556 4.556 0 0 0 .215.556C105.725 163.609 80.3 198.008 80.3 218.239c0 18.388 11.273 40.208 63.719 40.208s63.723-22.106 63.723-40.208c-.002-19.439-25.048-54.96-43.5-72.939z" class="cls-3" data-name="Path 855" transform="translate(-80.298 -111.991)"/>
                <g id="Group_694" data-name="Group 694" transform="translate(31.795 .033)">
                    <path id="Path_856" d="M90.261 112a3.9 3.9 0 0 0-1.1.272 9.116 9.116 0 0 0 1.1-.272z" class="cls-7" data-name="Path 856" transform="translate(-89.16 -112)"/>
                    <path id="Path_857" d="M115.878 145.179c.316-.441 17.483-29.149 17.483-29.149.667-2.32-1.833-4.389-4.689-3.93-5.92.947-15.786 2.664-19.435 2.3-3.434 9.069-9.992 26.331-10.25 26.689 20.343 19.822 47.954 58.986 47.954 80.408 0 11.141-3.886 23.652-17.365 32.534 23.748-7.308 29.8-22.677 29.8-35.912.001-19.432-25.046-54.957-43.498-72.94z" class="cls-8" data-name="Path 857" transform="translate(-63.73 -111.907)"/>
                </g>
                <g id="Group_699" data-name="Group 699" transform="translate(37.708 31.025)">
                    <g id="Group_698" data-name="Group 698">
                        <g id="Group_697" data-name="Group 697">
                            <g id="Group_695" data-name="Group 695" transform="translate(5.22)">
                                <path id="Path_858" d="M134.093 123.727a60.88 60.88 0 0 0-.814-.8 19.894 19.894 0 0 0 1.385-2.281l-42.4.072 1.015 2.019a4.556 4.556 0 0 0 .215.556c-.151.143-.3.29-.456.437z" class="cls-4" data-name="Path 858" transform="translate(-92.263 -120.643)"/>
                            </g>
                            <g id="Group_696" data-name="Group 696" transform="translate(0 5.902)">
                                <path id="Path_859" d="M143.7 125.369a310.461 310.461 0 0 0-3.01-3.08H93.9q-1.528 1.5-3.1 3.08z" class="cls-4" data-name="Path 859" transform="translate(-90.808 -122.289)"/>
                            </g>
                        </g>
                    </g>
                    <path id="Path_860" d="M92.762 121.258q.081.221.172.441c-.151.143-.3.29-.456.437h41.055a60.88 60.88 0 0 0-.814-.8l.036-.075z" class="cls-9" data-name="Path 860" transform="translate(-86.484 -119.053)"/>
                    <path id="Path_861" d="M142.845 122.9H91.691c-.294.3-.585.581-.883.879H143.7c-.288-.295-.568-.579-.855-.879z" class="cls-9" data-name="Path 861" transform="translate(-90.808 -114.799)"/>
                </g>
                <path id="Path_862" d="M113.217 156.265a.209.209 0 0 1-.079-.079q-.673-.409-1.823-1.2c-4.729-3.116-7.075-5.7-7.075-7.778a3.887 3.887 0 0 1 1.245-3 4.7 4.7 0 0 1 3.308-1.133 5.057 5.057 0 0 1 4.169 1.628c.893 1.1 1.324 2.811 1.324 5.156v.911h9.777v-.99q0-7.5-3.642-11.209a12.176 12.176 0 0 0-6.365-3.285v-6.4h-9.586v6.4a13.974 13.974 0 0 0-6.462 2.9q-3.95 3.351-3.943 9.721a13.884 13.884 0 0 0 2.332 8.143c1.55 2.266 5.238 5.3 11.022 9.1.3.208.7.463 1.2.8 3.738 2.4 5.59 4.536 5.59 6.4a4.476 4.476 0 0 1-1.342 3.417 5.066 5.066 0 0 1-3.627 1.262c-2.013 0-3.416-.592-4.23-1.757-.818-1.183-1.231-3.306-1.231-6.386v-.832h-9.97c0 .226-.014.527-.047.943-.014.416-.032.717-.032.911q0 7.9 3.738 11.622a12.922 12.922 0 0 0 6.95 3.313v6.3H114v-6.329a14.354 14.354 0 0 0 6.727-3.026q4.074-3.469 4.072-9.85.001-7.972-11.582-15.673z" class="cls-10" data-name="Path 862" transform="translate(-45.544 -68.308)"/>
            </g>
        </g>
        <g id="Group_717" data-name="Group 717" transform="translate(0 150.628)">
            <g id="Group_709" data-name="Group 709" transform="translate(7.561)">
                <g id="Group_702" data-name="Group 702" transform="translate(25.984 48.128)">
                    <path id="Rectangle_329" d="M0 0h1.039v56.13H0z" class="cls-3" data-name="Rectangle 329"/>
                </g>
                <g id="Group_705" data-name="Group 705" transform="translate(2.56)">
                    <ellipse id="Ellipse_108" cx="24.551" cy="24.537" class="cls-4" data-name="Ellipse 108" rx="24.551" ry="24.537"/>
                    <path id="Path_863" d="M113.367 113.118a18.651 18.651 0 0 1-37.3 0c0-.359.007-.721.032-1.079a18.651 18.651 0 0 0 37.238 0c.023.361.03.721.03 1.079z" class="cls-5" data-name="Path 863" transform="translate(-70.166 -86.43)"/>
                    <ellipse id="Ellipse_109" cx="18.618" cy="17.563" class="cls-2" data-name="Ellipse 109" rx="18.618" ry="17.563" transform="translate(5.932 8.048)"/>
                    <path id="Path_864" d="M113.367 125.18c0 .455-.018.9-.057 1.341a18.641 18.641 0 0 0-37.187 0 15.187 15.187 0 0 1-.057-1.341 18.651 18.651 0 0 1 37.3 0z" class="cls-6" data-name="Path 864" transform="translate(-70.166 -100.646)"/>
                    <g id="Group_704" data-name="Group 704" transform="translate(20.347 15.315)">
                        <g id="Group_703" data-name="Group 703">
                            <path id="Path_865" d="M83.533 127.613v-2.27a6.524 6.524 0 0 1-3.441-.99l.538-1.506a5.986 5.986 0 0 0 3.236.968c1.6 0 2.677-.922 2.677-2.2 0-1.237-.875-2-2.54-2.675-2.293-.9-3.71-1.929-3.71-3.887a3.684 3.684 0 0 1 3.394-3.614v-2.27h1.4v2.18a5.994 5.994 0 0 1 2.92.785l-.563 1.481a5.435 5.435 0 0 0-2.831-.76c-1.729 0-2.382 1.033-2.382 1.929 0 1.169.832 1.753 2.788 2.564 2.314.943 3.484 2.108 3.484 4.109a3.911 3.911 0 0 1-3.552 3.819v2.338z" class="cls-4" data-name="Path 865" transform="translate(-80.092 -109.168)"/>
                        </g>
                    </g>
                </g>
                <g id="Group_708" data-name="Group 708" transform="translate(0 52.492)">
                    <path id="Path_866" d="M81.094 137.109s6.591-20.217 23.931-14.024c8.804 3.145-23.931 14.024-23.931 14.024z" class="cls-3" data-name="Path 866" transform="translate(-54.592 -113.407)"/>
                    <path id="Path_867" d="M100.209 143.238s-9.12-23.7-23.184-23.7c-14.491-.002 23.184 23.7 23.184 23.7z" class="cls-3" data-name="Path 867" transform="translate(-73.707 -119.536)"/>
                    <g id="Group_706" data-name="Group 706" transform="translate(4.372 2.281)">
                        <path id="Path_868" d="M95.38 138.162a56.3 56.3 0 0 1-9.454-9.922 48.331 48.331 0 0 1-1.97-2.765 6.236 6.236 0 0 0-2.339-2.564 12.863 12.863 0 0 0-3.473-.889 5.96 5.96 0 0 1-3.218-1.262 6.022 6.022 0 0 0 3.172 1.47 12.961 12.961 0 0 1 3.369.936 5.909 5.909 0 0 1 2.153 2.5c.61.961 1.245 1.908 1.923 2.826a51.76 51.76 0 0 0 4.549 5.174 42.338 42.338 0 0 0 5.288 4.496z" class="cls-3" data-name="Path 868" transform="translate(-74.926 -118.652)"/>
                        <path id="Path_869" d="M75.6 126.558c.947-.1 1.891-.226 2.827-.38a13.324 13.324 0 0 0 1.421-.269c.445-.111 1.1-.452 1.073-1.094a4.381 4.381 0 0 0-.549-1.312c-.219-.4-.434-.8-.692-1.176a14.631 14.631 0 0 0-1.7-2.155c.5.764.954 1.538 1.385 2.32a12.022 12.022 0 0 1 1.091 2.342c.039.323-.319.57-.739.7s-.908.2-1.36.319c-.922.207-1.841.447-2.757.705z" class="cls-3" data-name="Path 869" transform="translate(-73.169 -120.172)"/>
                        <path id="Path_870" d="M77.595 124.691c.5.362 1 .706 1.518 1.026a7.848 7.848 0 0 0 .814.466.976.976 0 0 0 1.127-.108 5.646 5.646 0 0 0 .567-1.75 7.747 7.747 0 0 0 .129-1.75 45.462 45.462 0 0 1-.481 1.675 8.521 8.521 0 0 1-.574 1.545c-.215.3-.883-.122-1.4-.366a22.462 22.462 0 0 0-1.7-.738z" class="cls-3" data-name="Path 870" transform="translate(-68.019 -113.958)"/>
                    </g>
                    <g id="Group_707" data-name="Group 707" transform="translate(27.614 8.498)">
                        <path id="Path_871" d="M81.4 134.106c3.717-.911 7.021-3.095 10.164-5.289a74.37 74.37 0 0 1 9.622-6.307c-3.581 1.37-6.727 3.722-9.87 5.913a40.977 40.977 0 0 1-9.916 5.683z" class="cls-3" data-name="Path 871" transform="translate(-81.404 -120.344)"/>
                        <path id="Path_872" d="M86.993 121.906a52.639 52.639 0 0 0-1.116 2.671c-.187.448-.341.907-.509 1.359a4.407 4.407 0 0 0-.4 1.485 1.145 1.145 0 0 0 1.184 1.029 11.761 11.761 0 0 0 1.4-.154q1.367-.183 2.727-.459c-.922.007-1.844.036-2.763.1-.445.011-.947.093-1.342.086-.413-.025-.761-.258-.757-.628a4.245 4.245 0 0 1 .33-1.309c.151-.459.316-.911.448-1.377.293-.928.555-1.86.798-2.803z" class="cls-3" data-name="Path 872" transform="translate(-72.176 -121.906)"/>
                        <path id="Path_873" d="M85.128 123.522c-.294.6-.57 1.2-.818 1.822-.136.3-.24.62-.359.929a3.044 3.044 0 0 0-.283 1.051.853.853 0 0 0 .879.771 7.085 7.085 0 0 0 .976-.115 21.009 21.009 0 0 0 1.869-.373 21.987 21.987 0 0 0-1.905.011c-.3 0-.664.057-.915.047-.276-.022-.463-.161-.459-.369a14.382 14.382 0 0 1 .517-1.825q.29-.959.498-1.949z" class="cls-3" data-name="Path 873" transform="translate(-75.545 -117.727)"/>
                    </g>
                </g>
            </g>
            <g id="Group_716" data-name="Group 716" transform="translate(0 92.638)">
                <path id="Path_874" d="M115.769 148.256c.165-.233 9.2-15.337 9.2-15.337.352-1.219-.965-2.309-2.468-2.069-3.254.52-8.467 1.5-10.484 1.19-.606-.09-.7-.326-1.708-.574a5.657 5.657 0 0 0-2.845-.247 5.175 5.175 0 0 0-2.113 1.334c-1.9 1.743-3.355 2.012-4.295 1.969-2.989-.14-8.657-3.629-11.685-3.787a2.314 2.314 0 0 0-1.184.215 2.195 2.195 0 0 0-.872 2.507l7.409 14.7a2.919 2.919 0 0 0 .111.294c-9.856 9.44-23.235 27.542-23.235 38.184 0 9.678 5.934 21.156 33.528 21.156s33.528-11.632 33.528-21.156c0-10.226-13.178-28.916-22.887-38.379z" class="cls-3" data-name="Path 874" transform="translate(-71.6 -130.732)"/>
                <g id="Group_710" data-name="Group 710" transform="translate(16.73 .019)">
                    <path id="Path_875" d="M76.844 130.737a2.06 2.06 0 0 0-.581.143 5.071 5.071 0 0 0 .581-.143z" class="cls-7" data-name="Path 875" transform="translate(-76.263 -130.737)"/>
                    <path id="Path_876" d="M90.321 148.195c.165-.233 9.2-15.337 9.2-15.337.352-1.219-.965-2.309-2.468-2.069-3.114.5-8.3 1.4-10.225 1.212-1.808 4.769-5.256 13.856-5.392 14.046 10.7 10.427 25.229 31.031 25.229 42.305a19.559 19.559 0 0 1-9.135 17.119c12.5-3.848 15.679-11.934 15.679-18.9-.002-10.224-13.179-28.913-22.888-38.376z" class="cls-8" data-name="Path 876" transform="translate(-62.882 -130.689)"/>
                </g>
                <g id="Group_715" data-name="Group 715" transform="translate(19.84 16.323)">
                    <g id="Group_714" data-name="Group 714">
                        <g id="Group_713" data-name="Group 713">
                            <g id="Group_711" data-name="Group 711" transform="translate(2.748)">
                                <path id="Path_877" d="M99.907 136.908c-.143-.14-.291-.283-.43-.423a9.744 9.744 0 0 0 .728-1.2l-22.309.039.535 1.061a2.914 2.914 0 0 0 .111.294l-.237.229z" class="cls-4" data-name="Path 877" transform="translate(-77.896 -135.284)"/>
                            </g>
                            <g id="Group_712" data-name="Group 712" transform="translate(0 3.105)">
                                <path id="Path_878" d="M104.964 137.774q-.8-.834-1.586-1.624H78.762a165.63 165.63 0 0 0-1.632 1.624z" class="cls-4" data-name="Path 878" transform="translate(-77.13 -136.15)"/>
                            </g>
                        </g>
                    </g>
                    <path id="Path_879" d="M78.157 135.608c.029.079.057.154.09.233l-.237.229h21.6c-.143-.14-.291-.283-.431-.423l.018-.039z" class="cls-9" data-name="Path 879" transform="translate(-74.853 -134.446)"/>
                    <path id="Path_880" d="M104.512 136.474H77.6c-.154.154-.309.3-.466.463h27.834z" class="cls-9" data-name="Path 880" transform="translate(-77.13 -132.207)"/>
                </g>
                <path id="Path_881" d="M88.921 154.028a.114.114 0 0 1-.043-.039 26.117 26.117 0 0 1-.958-.631q-3.73-2.458-3.724-4.091a2.032 2.032 0 0 1 .657-1.578 2.459 2.459 0 0 1 1.74-.6 2.664 2.664 0 0 1 2.2.857 4.272 4.272 0 0 1 .7 2.714v.477h5.145v-.52q0-3.943-1.916-5.9a6.43 6.43 0 0 0-3.351-1.728v-3.369h-5.053v3.371a7.374 7.374 0 0 0-3.4 1.528 6.33 6.33 0 0 0-2.077 5.117 7.328 7.328 0 0 0 1.227 4.285c.814 1.194 2.759 2.79 5.8 4.787.158.111.37.244.628.42 1.97 1.262 2.942 2.388 2.942 3.371a2.339 2.339 0 0 1-.707 1.8 2.663 2.663 0 0 1-1.905.663 2.513 2.513 0 0 1-2.228-.925 6.248 6.248 0 0 1-.649-3.36v-.434H78.71c0 .115-.011.276-.025.495s-.018.377-.018.477c0 2.772.657 4.816 1.966 6.117a6.81 6.81 0 0 0 3.656 1.743v3.313h5.044v-3.331a7.522 7.522 0 0 0 3.538-1.592 6.44 6.44 0 0 0 2.146-5.182q0-4.2-6.096-8.255z" class="cls-10" data-name="Path 881" transform="translate(-53.312 -107.748)"/>
            </g>
        </g>
    </g>
</svg>
